<?xml version="1.0" encoding="utf-8"?>
<!-- Generator: Adobe Illustrator 19.1.0, SVG Export Plug-In . SVG Version: 6.00 Build 0)  -->
<svg version="1.0" id="Layer_1" xmlns="http://www.w3.org/2000/svg" xmlns:xlink="http://www.w3.org/1999/xlink" x="0px" y="0px"
	 viewBox="-85 207 340 100" enable-background="new -85 207 340 100" xml:space="preserve">
<path fill="#0E5399" d="M62.8,225.6c11.6-10.4,30.1-5.7,44.1-11.4c-3.6,8.6-23.1,6.8-31.8,10.9c-16,7.5,1.4,21,5.4,29.5
	c1.7,3.5,5.7,13.9-2,14.8c-4.5,0.5-5.7-9-6.8-11.6C68,248,52.9,236.3,62.8,225.6C64,224.5,61.5,227,62.8,225.6z"/>
<path fill="#0E5399" d="M109.1,227.8c2.4,2,3.6,4.2,3.8,7.5c0.3,5.2-6,12.7-8.3,17.5c-1.4,2.9-8.6,24.5-13.9,14.7
	c-2.2-4-0.9-8.9-0.8-13.1c0.1-3.9-1.3-5.2-3.8-4.2c-1,0.4-2.3,1.4-3.4,0.1c-2.5-2.7,4.3-8.1,7.8-8.6c0.4-0.1,0.7-0.1,1,0
	c0.6,0.1,1.1,0.4,1.5,0.7c3.3,2.7,2.6,11.5,2.7,14.8c4.1-5,9-13.5,8.1-20.2c-1.1-8.6-10.1-8.3-16.2-4.8c-1.4,0.8-6.2,4.4-7.5,3.7
	c-1.9-1.1,3.6-5.9,4.6-6.7c4.2-3.5,9.6-6,15.1-5.7C104.8,223.9,107.7,226.6,109.1,227.8z"/>
<path fill="#E7F5F9" d="M52.3,271.1"/>
<text transform="matrix(1 0 0 1 -11.5906 295.8341)" fill="#0E5399" font-family="'IowanOldStyle-BoldItalic'" font-size="28px">S</text>
<text transform="matrix(1 0 0 1 4.8157 295.8341)" fill="#0E5399" font-family="'IowanOldStyle-BoldItalic'" font-size="28px">m</text>
<text transform="matrix(1 0 0 1 27.1282 295.8341)" fill="#0E5399" font-family="'IowanOldStyle-BoldItalic'" font-size="28px">i</text>
<text transform="matrix(1 0 0 1 35.7004 295.8341)" fill="#0E5399" font-family="'IowanOldStyle-BoldItalic'" font-size="28px">l</text>
<text transform="matrix(1 0 0 1 43.9856 295.8341)" fill="#0E5399" font-family="'IowanOldStyle-BoldItalic'" font-size="28px">e</text>
<text transform="matrix(1 0 0 1 55.7707 295.8341)" fill="#0E5399" font-family="'IowanOldStyle-BoldItalic'" font-size="28px">s</text>
<text transform="matrix(1 0 0 1 67.3372 295.8341)" fill="#0E5399" font-family="'IowanOldStyle-BoldItalic'" font-size="28px"> </text>
<text transform="matrix(1 0 0 1 75.4856 295.8341)" fill="#0E5399" font-family="'IowanOldStyle-BoldItalic'" font-size="28px">f</text>
<text transform="matrix(1 0 0 1 85.2063 295.8341)" fill="#0E5399" font-family="'IowanOldStyle-BoldItalic'" font-size="28px">o</text>
<text transform="matrix(1 0 0 1 99.425 295.8341)" fill="#0E5399" font-family="'IowanOldStyle-BoldItalic'" font-size="28px">r</text>
<text transform="matrix(1 0 0 1 110.9368 295.8341)" fill="#0E5399" font-family="'IowanOldStyle-BoldItalic'" font-size="28px"> </text>
<text transform="matrix(1 0 0 1 119.0852 295.8341)" fill="#0E5399" font-family="'IowanOldStyle-BoldItalic'" font-size="28px">T</text>
<text transform="matrix(1 0 0 1 133.8235 295.8341)" fill="#0E5399" font-family="'IowanOldStyle-BoldItalic'" font-size="28px">o</text>
<text transform="matrix(1 0 0 1 148.0422 295.8341)" fill="#0E5399" font-family="'IowanOldStyle-BoldItalic'" font-size="28px">d</text>
<text transform="matrix(1 0 0 1 163.1086 295.8341)" fill="#0E5399" font-family="'IowanOldStyle-BoldItalic'" font-size="28px">a</text>
<text transform="matrix(1 0 0 1 177.7785 295.8341)" fill="#0E5399" font-family="'IowanOldStyle-BoldItalic'" font-size="28px">y</text>
<path fill="#127BB5" d="M249,261.9c0,0-0.6,0-1.6,0c-1.1,0-2.6,0-4.6,0s-4.4-0.2-7.2-0.4c-2.8-0.2-5.9-0.6-9.3-1.2
	c-3.4-0.5-7.1-1.3-10.9-2.3s-7.8-2.2-11.8-3.5c-4.1-1.3-8.1-2.7-12.4-4.1c-4.2-1.4-8.5-2.7-12.7-3.7c-4.2-1.1-8.5-1.7-12.7-2.1
	c-2.1-0.2-4.2-0.3-6.3-0.3H158c-0.5,0-1.1,0-1.6,0c-1.1,0-2.1,0-3.1,0.1c-4,0.2-7.9,0.5-11.6,0.9c-3.7,0.4-7.2,0.8-10.4,1.4
	s-6.1,1.5-8.6,2.4s-4.7,1.8-6.4,2.6c-1.7,0.8-3.1,1.6-4,2.1c-0.4,0.3-0.8,0.5-1,0.6c-0.2,0.1-0.3,0.2-0.3,0.2l-0.1,0.1
	c-0.3,0.2-0.8,0.1-1-0.2c-0.2-0.3-0.2-0.7,0.1-0.9c0,0,0.1-0.1,0.3-0.3c0.2-0.2,0.5-0.5,0.9-0.8c0.8-0.7,2.1-1.7,3.7-2.8
	c1.7-1.1,3.7-2.4,6.2-3.7s5.4-2.5,8.7-3.7c1.6-0.6,3.3-1.1,5.1-1.7c1.8-0.5,3.7-0.9,5.6-1.3c1.9-0.4,4-0.6,6.1-0.8
	c2.1-0.2,4.2-0.3,6.4-0.3c4.3,0,8.8,0.3,13.3,0.6c4.5,0.4,9.1,1.2,13.6,2.3s8.9,2.5,13.1,3.9s8.4,2.8,12.4,4.2
	c4,1.4,7.8,2.7,11.5,3.9c3.6,1.2,7.1,2.3,10.3,3.2s6.2,1.5,8.9,2.2c1.3,0.3,2.6,0.5,3.7,0.8c1.2,0.2,2.2,0.4,3.2,0.6
	c1.9,0.4,3.5,0.6,4.5,0.8c1,0.2,1.6,0.3,1.6,0.3l0,0c0.3,0.1,0.5,0.3,0.4,0.6C249.5,261.7,249.3,261.9,249,261.9z"/>
<path fill="#127BB5" d="M-79.3,256.8c0,0,0.5-0.2,1.6-0.5c1-0.3,2.5-0.9,4.5-1.4c1-0.3,2.1-0.6,3.2-0.9c1.2-0.3,2.5-0.6,3.9-0.9
	s2.9-0.5,4.4-0.8c1.6-0.2,3.2-0.4,5-0.6c3.5-0.3,7.3-0.4,11.4-0.1s8.3,1,12.6,2.1c4.3,1.1,8.6,2.4,12.8,3.9
	c4.2,1.4,8.5,2.7,12.8,3.6c4.3,1,8.7,1.6,13.1,2c2.2,0.2,4.4,0.3,6.5,0.4c0.5,0,1.1,0,1.6,0.1h0.8h0.8c1.1,0,2.2,0,3.2,0
	s2,0,3.1-0.1c1,0,2-0.1,3-0.2c2-0.2,3.9-0.5,5.8-0.6c3.8-0.4,7.3-0.9,10.6-1.6c3.2-0.7,6.2-1.6,8.7-2.5c2.6-0.9,4.8-1.7,6.6-2.6
	c1.8-0.8,3.1-1.6,4-2.1c0.5-0.3,0.8-0.5,1-0.6s0.3-0.2,0.3-0.2l0.1-0.1c0.3-0.2,0.8-0.1,1,0.2s0.1,0.7-0.1,0.9c0,0-0.1,0.1-0.3,0.3
	c-0.2,0.2-0.5,0.5-1,0.8c-0.9,0.7-2.2,1.6-3.9,2.7c-1.7,1.1-3.9,2.3-6.5,3.5s-5.6,2.3-8.9,3.3c-3.3,1-7,1.9-11,2.6
	c-2,0.3-4,0.5-6.1,0.6s-4.2,0.2-6.4,0.2c-1.1,0-2.2,0-3.3,0h-0.8H14c-0.6,0-1.1,0-1.7-0.1c-2.2-0.1-4.5-0.2-6.7-0.4
	c-4.5-0.3-9.2-0.9-13.7-1.8c-4.6-1-9-2.2-13.4-3.6c-4.3-1.4-8.5-2.7-12.5-3.7c-1-0.2-2-0.5-3-0.7s-2-0.4-3-0.6
	c-2-0.3-3.9-0.7-5.8-0.9c-3.8-0.4-7.4-0.7-10.7-0.7s-6.4,0.2-9.2,0.4c-1.4,0.1-2.6,0.3-3.8,0.4c-1.2,0.2-2.3,0.3-3.2,0.4
	c-2,0.2-3.5,0.5-4.6,0.7s-1.6,0.2-1.6,0.2l0,0c-0.3,0-0.6-0.2-0.6-0.5C-79.7,257.2-79.5,256.9-79.3,256.8z"/>
</svg>
